<mxfile host="app.diagrams.net" modified="2023-11-29T13:53:02.940Z" agent="Mozilla/5.0 (Windows NT 10.0; Win64; x64) AppleWebKit/537.36 (KHTML, like Gecko) Chrome/119.0.0.0 Safari/537.36" etag="5gunxMW9ma9E1NLBqUiP" version="22.1.3" type="device">
  <diagram name="Страница — 1" id="BtdJDpnY96WtIBGCTzwL">
    <mxGraphModel dx="1434" dy="782" grid="1" gridSize="10" guides="1" tooltips="1" connect="1" arrows="1" fold="1" page="1" pageScale="1" pageWidth="827" pageHeight="1169" math="0" shadow="0">
      <root>
        <mxCell id="0" />
        <mxCell id="1" parent="0" />
        <mxCell id="w4nXM_u8uc4eyidQvc-f-8" value="&lt;font color=&quot;#ffffff&quot;&gt;Student housing project&lt;/font&gt;" style="rounded=1;whiteSpace=wrap;html=1;fillColor=#009900;" vertex="1" parent="1">
          <mxGeometry x="350" y="140" width="120" height="60" as="geometry" />
        </mxCell>
        <mxCell id="w4nXM_u8uc4eyidQvc-f-9" value="" style="endArrow=classic;html=1;rounded=0;exitX=0.5;exitY=1;exitDx=0;exitDy=0;entryX=0.5;entryY=0;entryDx=0;entryDy=0;entryPerimeter=0;" edge="1" parent="1" source="w4nXM_u8uc4eyidQvc-f-8" target="w4nXM_u8uc4eyidQvc-f-13">
          <mxGeometry width="50" height="50" relative="1" as="geometry">
            <mxPoint x="360" y="290" as="sourcePoint" />
            <mxPoint x="220" y="280" as="targetPoint" />
          </mxGeometry>
        </mxCell>
        <mxCell id="w4nXM_u8uc4eyidQvc-f-10" value="" style="endArrow=classic;html=1;rounded=0;exitX=0.5;exitY=1;exitDx=0;exitDy=0;entryX=0.5;entryY=0;entryDx=0;entryDy=0;entryPerimeter=0;" edge="1" parent="1" source="w4nXM_u8uc4eyidQvc-f-8" target="w4nXM_u8uc4eyidQvc-f-15">
          <mxGeometry width="50" height="50" relative="1" as="geometry">
            <mxPoint x="390" y="430" as="sourcePoint" />
            <mxPoint x="610" y="280" as="targetPoint" />
          </mxGeometry>
        </mxCell>
        <mxCell id="w4nXM_u8uc4eyidQvc-f-13" value="Documentation" style="strokeWidth=1;html=1;shape=mxgraph.flowchart.terminator;whiteSpace=wrap;fillColor=#FFD866;strokeColor=#B68D11;" vertex="1" parent="1">
          <mxGeometry x="30" y="270" width="130" height="50" as="geometry" />
        </mxCell>
        <mxCell id="w4nXM_u8uc4eyidQvc-f-15" value="Application" style="strokeWidth=1;html=1;shape=mxgraph.flowchart.terminator;whiteSpace=wrap;fillColor=#FFD866;strokeColor=#B68D11;" vertex="1" parent="1">
          <mxGeometry x="630" y="280" width="130" height="50" as="geometry" />
        </mxCell>
        <mxCell id="w4nXM_u8uc4eyidQvc-f-16" value="" style="endArrow=classic;html=1;rounded=0;exitX=0;exitY=0.5;exitDx=0;exitDy=0;exitPerimeter=0;entryX=0;entryY=0.5;entryDx=0;entryDy=0;" edge="1" parent="1" source="w4nXM_u8uc4eyidQvc-f-13" target="w4nXM_u8uc4eyidQvc-f-68">
          <mxGeometry width="50" height="50" relative="1" as="geometry">
            <mxPoint x="150" y="430" as="sourcePoint" />
            <mxPoint x="30" y="400" as="targetPoint" />
            <Array as="points">
              <mxPoint x="30" y="560" />
            </Array>
          </mxGeometry>
        </mxCell>
        <mxCell id="w4nXM_u8uc4eyidQvc-f-17" value="" style="endArrow=classic;html=1;rounded=0;exitX=0.5;exitY=1;exitDx=0;exitDy=0;exitPerimeter=0;entryX=0.5;entryY=0;entryDx=0;entryDy=0;entryPerimeter=0;" edge="1" parent="1" source="w4nXM_u8uc4eyidQvc-f-15" target="w4nXM_u8uc4eyidQvc-f-20">
          <mxGeometry width="50" height="50" relative="1" as="geometry">
            <mxPoint x="490" y="430" as="sourcePoint" />
            <mxPoint x="540" y="420" as="targetPoint" />
          </mxGeometry>
        </mxCell>
        <mxCell id="w4nXM_u8uc4eyidQvc-f-18" value="" style="endArrow=classic;html=1;rounded=0;exitX=0.5;exitY=1;exitDx=0;exitDy=0;exitPerimeter=0;entryX=0.5;entryY=0;entryDx=0;entryDy=0;entryPerimeter=0;" edge="1" parent="1" source="w4nXM_u8uc4eyidQvc-f-15" target="w4nXM_u8uc4eyidQvc-f-21">
          <mxGeometry width="50" height="50" relative="1" as="geometry">
            <mxPoint x="490" y="430" as="sourcePoint" />
            <mxPoint x="840" y="420" as="targetPoint" />
            <Array as="points" />
          </mxGeometry>
        </mxCell>
        <mxCell id="w4nXM_u8uc4eyidQvc-f-20" value="Backend" style="strokeWidth=1;html=1;shape=mxgraph.flowchart.terminator;whiteSpace=wrap;fillColor=#FFD866;strokeColor=#B68D11;" vertex="1" parent="1">
          <mxGeometry x="400" y="420" width="130" height="50" as="geometry" />
        </mxCell>
        <mxCell id="w4nXM_u8uc4eyidQvc-f-21" value="Frontend" style="strokeWidth=1;html=1;shape=mxgraph.flowchart.terminator;whiteSpace=wrap;strokeColor=#B68D11;fillColor=#FFD866;" vertex="1" parent="1">
          <mxGeometry x="827" y="420" width="130" height="50" as="geometry" />
        </mxCell>
        <mxCell id="w4nXM_u8uc4eyidQvc-f-22" value="" style="endArrow=classic;html=1;rounded=0;exitX=0.5;exitY=1;exitDx=0;exitDy=0;exitPerimeter=0;entryX=0.5;entryY=0;entryDx=0;entryDy=0;entryPerimeter=0;" edge="1" parent="1" source="w4nXM_u8uc4eyidQvc-f-20" target="w4nXM_u8uc4eyidQvc-f-24">
          <mxGeometry width="50" height="50" relative="1" as="geometry">
            <mxPoint x="420" y="630" as="sourcePoint" />
            <mxPoint x="370" y="530" as="targetPoint" />
          </mxGeometry>
        </mxCell>
        <mxCell id="w4nXM_u8uc4eyidQvc-f-23" value="" style="endArrow=classic;html=1;rounded=0;exitX=0.5;exitY=1;exitDx=0;exitDy=0;exitPerimeter=0;entryX=0.5;entryY=0;entryDx=0;entryDy=0;entryPerimeter=0;" edge="1" parent="1" source="w4nXM_u8uc4eyidQvc-f-20" target="w4nXM_u8uc4eyidQvc-f-25">
          <mxGeometry width="50" height="50" relative="1" as="geometry">
            <mxPoint x="520" y="580" as="sourcePoint" />
            <mxPoint x="560" y="530" as="targetPoint" />
          </mxGeometry>
        </mxCell>
        <mxCell id="w4nXM_u8uc4eyidQvc-f-24" value="Perservance" style="strokeWidth=1;html=1;shape=mxgraph.flowchart.terminator;whiteSpace=wrap;fillColor=#FFD866;strokeColor=#B68D11;" vertex="1" parent="1">
          <mxGeometry x="250" y="535" width="130" height="50" as="geometry" />
        </mxCell>
        <mxCell id="w4nXM_u8uc4eyidQvc-f-25" value="Classes" style="strokeWidth=1;html=1;shape=mxgraph.flowchart.terminator;whiteSpace=wrap;fillColor=#FFD866;strokeColor=#B68D11;" vertex="1" parent="1">
          <mxGeometry x="550" y="535" width="130" height="50" as="geometry" />
        </mxCell>
        <mxCell id="w4nXM_u8uc4eyidQvc-f-26" value="" style="endArrow=classic;html=1;rounded=0;exitX=0.5;exitY=1;exitDx=0;exitDy=0;exitPerimeter=0;entryX=0.5;entryY=0;entryDx=0;entryDy=0;entryPerimeter=0;" edge="1" parent="1" source="w4nXM_u8uc4eyidQvc-f-21" target="w4nXM_u8uc4eyidQvc-f-27">
          <mxGeometry width="50" height="50" relative="1" as="geometry">
            <mxPoint x="817" y="580" as="sourcePoint" />
            <mxPoint x="862" y="540" as="targetPoint" />
          </mxGeometry>
        </mxCell>
        <mxCell id="w4nXM_u8uc4eyidQvc-f-27" value="Pages" style="strokeWidth=1;html=1;shape=mxgraph.flowchart.terminator;whiteSpace=wrap;fillColor=#FFD866;strokeColor=#B68D11;" vertex="1" parent="1">
          <mxGeometry x="827" y="535" width="130" height="50" as="geometry" />
        </mxCell>
        <mxCell id="w4nXM_u8uc4eyidQvc-f-30" value="Student" style="rounded=0;whiteSpace=wrap;html=1;strokeWidth=0;fillColor=#3399FF;" vertex="1" parent="1">
          <mxGeometry x="610" y="630" width="105" height="50" as="geometry" />
        </mxCell>
        <mxCell id="w4nXM_u8uc4eyidQvc-f-33" value="Rules" style="rounded=0;whiteSpace=wrap;html=1;strokeWidth=0;fillColor=#3399FF;" vertex="1" parent="1">
          <mxGeometry x="610" y="710" width="105" height="50" as="geometry" />
        </mxCell>
        <mxCell id="w4nXM_u8uc4eyidQvc-f-35" value="Announcment" style="rounded=0;whiteSpace=wrap;html=1;strokeWidth=0;fillColor=#3399FF;" vertex="1" parent="1">
          <mxGeometry x="610" y="790" width="105" height="50" as="geometry" />
        </mxCell>
        <mxCell id="w4nXM_u8uc4eyidQvc-f-36" value="Complaint" style="rounded=0;whiteSpace=wrap;html=1;strokeWidth=0;fillColor=#3399FF;" vertex="1" parent="1">
          <mxGeometry x="610" y="870" width="105" height="50" as="geometry" />
        </mxCell>
        <mxCell id="w4nXM_u8uc4eyidQvc-f-37" value="" style="endArrow=classic;html=1;rounded=0;exitX=0;exitY=0.5;exitDx=0;exitDy=0;exitPerimeter=0;entryX=0;entryY=0.5;entryDx=0;entryDy=0;" edge="1" parent="1" source="w4nXM_u8uc4eyidQvc-f-25" target="w4nXM_u8uc4eyidQvc-f-36">
          <mxGeometry width="50" height="50" relative="1" as="geometry">
            <mxPoint x="580" y="860" as="sourcePoint" />
            <mxPoint x="587" y="910" as="targetPoint" />
            <Array as="points">
              <mxPoint x="550" y="895" />
            </Array>
          </mxGeometry>
        </mxCell>
        <mxCell id="w4nXM_u8uc4eyidQvc-f-38" value="" style="endArrow=classic;html=1;rounded=0;exitX=0;exitY=0.5;exitDx=0;exitDy=0;exitPerimeter=0;entryX=0;entryY=0.5;entryDx=0;entryDy=0;" edge="1" parent="1" source="w4nXM_u8uc4eyidQvc-f-25" target="w4nXM_u8uc4eyidQvc-f-35">
          <mxGeometry width="50" height="50" relative="1" as="geometry">
            <mxPoint x="580" y="860" as="sourcePoint" />
            <mxPoint x="586" y="820" as="targetPoint" />
            <Array as="points">
              <mxPoint x="550" y="815" />
            </Array>
          </mxGeometry>
        </mxCell>
        <mxCell id="w4nXM_u8uc4eyidQvc-f-39" value="" style="endArrow=classic;html=1;rounded=0;exitX=0;exitY=0.5;exitDx=0;exitDy=0;exitPerimeter=0;entryX=0;entryY=0.5;entryDx=0;entryDy=0;" edge="1" parent="1" source="w4nXM_u8uc4eyidQvc-f-25" target="w4nXM_u8uc4eyidQvc-f-33">
          <mxGeometry width="50" height="50" relative="1" as="geometry">
            <mxPoint x="580" y="860" as="sourcePoint" />
            <mxPoint x="630" y="810" as="targetPoint" />
            <Array as="points">
              <mxPoint x="550" y="735" />
            </Array>
          </mxGeometry>
        </mxCell>
        <mxCell id="w4nXM_u8uc4eyidQvc-f-40" value="" style="endArrow=classic;html=1;rounded=0;exitX=0;exitY=0.5;exitDx=0;exitDy=0;exitPerimeter=0;entryX=0;entryY=0.5;entryDx=0;entryDy=0;" edge="1" parent="1" source="w4nXM_u8uc4eyidQvc-f-25" target="w4nXM_u8uc4eyidQvc-f-30">
          <mxGeometry width="50" height="50" relative="1" as="geometry">
            <mxPoint x="580" y="860" as="sourcePoint" />
            <mxPoint x="630" y="810" as="targetPoint" />
            <Array as="points">
              <mxPoint x="550" y="655" />
            </Array>
          </mxGeometry>
        </mxCell>
        <mxCell id="w4nXM_u8uc4eyidQvc-f-41" value="" style="endArrow=classic;html=1;rounded=0;exitX=0;exitY=0.5;exitDx=0;exitDy=0;exitPerimeter=0;entryX=0;entryY=0.5;entryDx=0;entryDy=0;" edge="1" parent="1" source="w4nXM_u8uc4eyidQvc-f-27" target="w4nXM_u8uc4eyidQvc-f-51">
          <mxGeometry width="50" height="50" relative="1" as="geometry">
            <mxPoint x="727" y="530" as="sourcePoint" />
            <mxPoint x="797" y="1300" as="targetPoint" />
            <Array as="points">
              <mxPoint x="827" y="1295" />
            </Array>
          </mxGeometry>
        </mxCell>
        <mxCell id="w4nXM_u8uc4eyidQvc-f-42" value="Introduction" style="rounded=0;whiteSpace=wrap;html=1;fillColor=#3399FF;strokeWidth=0;" vertex="1" parent="1">
          <mxGeometry x="887" y="630" width="105" height="50" as="geometry" />
        </mxCell>
        <mxCell id="w4nXM_u8uc4eyidQvc-f-43" value="Register/Login" style="rounded=0;whiteSpace=wrap;html=1;fillColor=#3399FF;strokeWidth=0;" vertex="1" parent="1">
          <mxGeometry x="887" y="710" width="105" height="50" as="geometry" />
        </mxCell>
        <mxCell id="w4nXM_u8uc4eyidQvc-f-44" value="Main page" style="rounded=0;whiteSpace=wrap;html=1;fillColor=#3399FF;strokeWidth=0;" vertex="1" parent="1">
          <mxGeometry x="887" y="790" width="105" height="50" as="geometry" />
        </mxCell>
        <mxCell id="w4nXM_u8uc4eyidQvc-f-46" value="Rules" style="rounded=0;whiteSpace=wrap;html=1;fillColor=#3399FF;strokeWidth=0;" vertex="1" parent="1">
          <mxGeometry x="887" y="870" width="105" height="50" as="geometry" />
        </mxCell>
        <mxCell id="w4nXM_u8uc4eyidQvc-f-47" value="Announcements" style="rounded=0;whiteSpace=wrap;html=1;fillColor=#3399FF;strokeWidth=0;" vertex="1" parent="1">
          <mxGeometry x="887" y="950" width="105" height="50" as="geometry" />
        </mxCell>
        <mxCell id="w4nXM_u8uc4eyidQvc-f-48" value="Complaints" style="rounded=0;whiteSpace=wrap;html=1;fillColor=#3399FF;strokeWidth=0;" vertex="1" parent="1">
          <mxGeometry x="887" y="1030" width="105" height="50" as="geometry" />
        </mxCell>
        <mxCell id="w4nXM_u8uc4eyidQvc-f-49" value="Tasks" style="rounded=0;whiteSpace=wrap;html=1;fillColor=#3399FF;strokeWidth=0;" vertex="1" parent="1">
          <mxGeometry x="887" y="1110" width="105" height="50" as="geometry" />
        </mxCell>
        <mxCell id="w4nXM_u8uc4eyidQvc-f-50" value="Personal duties" style="rounded=0;whiteSpace=wrap;html=1;fillColor=#3399FF;strokeWidth=0;" vertex="1" parent="1">
          <mxGeometry x="887" y="1190" width="105" height="50" as="geometry" />
        </mxCell>
        <mxCell id="w4nXM_u8uc4eyidQvc-f-51" value="Info about students" style="rounded=0;whiteSpace=wrap;html=1;fillColor=#3399FF;strokeWidth=0;" vertex="1" parent="1">
          <mxGeometry x="887" y="1270" width="105" height="50" as="geometry" />
        </mxCell>
        <mxCell id="w4nXM_u8uc4eyidQvc-f-54" value="" style="endArrow=classic;html=1;rounded=0;exitX=0;exitY=0.5;exitDx=0;exitDy=0;exitPerimeter=0;entryX=0;entryY=0.5;entryDx=0;entryDy=0;" edge="1" parent="1" source="w4nXM_u8uc4eyidQvc-f-27" target="w4nXM_u8uc4eyidQvc-f-50">
          <mxGeometry width="50" height="50" relative="1" as="geometry">
            <mxPoint x="857" y="940" as="sourcePoint" />
            <mxPoint x="907" y="890" as="targetPoint" />
            <Array as="points">
              <mxPoint x="827" y="1215" />
            </Array>
          </mxGeometry>
        </mxCell>
        <mxCell id="w4nXM_u8uc4eyidQvc-f-55" value="" style="endArrow=classic;html=1;rounded=0;exitX=0;exitY=0.5;exitDx=0;exitDy=0;exitPerimeter=0;entryX=0;entryY=0.5;entryDx=0;entryDy=0;" edge="1" parent="1" source="w4nXM_u8uc4eyidQvc-f-27" target="w4nXM_u8uc4eyidQvc-f-49">
          <mxGeometry width="50" height="50" relative="1" as="geometry">
            <mxPoint x="857" y="940" as="sourcePoint" />
            <mxPoint x="907" y="890" as="targetPoint" />
            <Array as="points">
              <mxPoint x="827" y="1135" />
            </Array>
          </mxGeometry>
        </mxCell>
        <mxCell id="w4nXM_u8uc4eyidQvc-f-56" value="" style="endArrow=classic;html=1;rounded=0;exitX=0;exitY=0.5;exitDx=0;exitDy=0;exitPerimeter=0;entryX=0;entryY=0.5;entryDx=0;entryDy=0;" edge="1" parent="1" source="w4nXM_u8uc4eyidQvc-f-27" target="w4nXM_u8uc4eyidQvc-f-48">
          <mxGeometry width="50" height="50" relative="1" as="geometry">
            <mxPoint x="857" y="720" as="sourcePoint" />
            <mxPoint x="907" y="670" as="targetPoint" />
            <Array as="points">
              <mxPoint x="827" y="1055" />
            </Array>
          </mxGeometry>
        </mxCell>
        <mxCell id="w4nXM_u8uc4eyidQvc-f-57" value="" style="endArrow=classic;html=1;rounded=0;exitX=0;exitY=0.5;exitDx=0;exitDy=0;exitPerimeter=0;entryX=0;entryY=0.5;entryDx=0;entryDy=0;" edge="1" parent="1" source="w4nXM_u8uc4eyidQvc-f-27" target="w4nXM_u8uc4eyidQvc-f-47">
          <mxGeometry width="50" height="50" relative="1" as="geometry">
            <mxPoint x="857" y="820" as="sourcePoint" />
            <mxPoint x="907" y="770" as="targetPoint" />
            <Array as="points">
              <mxPoint x="827" y="975" />
            </Array>
          </mxGeometry>
        </mxCell>
        <mxCell id="w4nXM_u8uc4eyidQvc-f-58" value="" style="endArrow=classic;html=1;rounded=0;exitX=0;exitY=0.5;exitDx=0;exitDy=0;exitPerimeter=0;entryX=0;entryY=0.5;entryDx=0;entryDy=0;" edge="1" parent="1" source="w4nXM_u8uc4eyidQvc-f-27" target="w4nXM_u8uc4eyidQvc-f-46">
          <mxGeometry width="50" height="50" relative="1" as="geometry">
            <mxPoint x="857" y="820" as="sourcePoint" />
            <mxPoint x="907" y="770" as="targetPoint" />
            <Array as="points">
              <mxPoint x="827" y="895" />
            </Array>
          </mxGeometry>
        </mxCell>
        <mxCell id="w4nXM_u8uc4eyidQvc-f-59" value="" style="endArrow=classic;html=1;rounded=0;exitX=0;exitY=0.5;exitDx=0;exitDy=0;exitPerimeter=0;entryX=0;entryY=0.5;entryDx=0;entryDy=0;" edge="1" parent="1" source="w4nXM_u8uc4eyidQvc-f-27" target="w4nXM_u8uc4eyidQvc-f-44">
          <mxGeometry width="50" height="50" relative="1" as="geometry">
            <mxPoint x="857" y="820" as="sourcePoint" />
            <mxPoint x="907" y="770" as="targetPoint" />
            <Array as="points">
              <mxPoint x="827" y="815" />
            </Array>
          </mxGeometry>
        </mxCell>
        <mxCell id="w4nXM_u8uc4eyidQvc-f-60" value="" style="endArrow=classic;html=1;rounded=0;exitX=0;exitY=0.5;exitDx=0;exitDy=0;exitPerimeter=0;entryX=0;entryY=0.5;entryDx=0;entryDy=0;" edge="1" parent="1" source="w4nXM_u8uc4eyidQvc-f-27" target="w4nXM_u8uc4eyidQvc-f-43">
          <mxGeometry width="50" height="50" relative="1" as="geometry">
            <mxPoint x="857" y="820" as="sourcePoint" />
            <mxPoint x="907" y="770" as="targetPoint" />
            <Array as="points">
              <mxPoint x="827" y="735" />
            </Array>
          </mxGeometry>
        </mxCell>
        <mxCell id="w4nXM_u8uc4eyidQvc-f-61" value="" style="endArrow=classic;html=1;rounded=0;exitX=0;exitY=0.5;exitDx=0;exitDy=0;exitPerimeter=0;entryX=0;entryY=0.5;entryDx=0;entryDy=0;" edge="1" parent="1" source="w4nXM_u8uc4eyidQvc-f-27" target="w4nXM_u8uc4eyidQvc-f-42">
          <mxGeometry width="50" height="50" relative="1" as="geometry">
            <mxPoint x="857" y="820" as="sourcePoint" />
            <mxPoint x="907" y="770" as="targetPoint" />
            <Array as="points">
              <mxPoint x="827" y="655" />
            </Array>
          </mxGeometry>
        </mxCell>
        <mxCell id="w4nXM_u8uc4eyidQvc-f-62" value="" style="endArrow=classic;html=1;rounded=0;exitX=0;exitY=0.5;exitDx=0;exitDy=0;exitPerimeter=0;entryX=0;entryY=0.5;entryDx=0;entryDy=0;" edge="1" parent="1" source="w4nXM_u8uc4eyidQvc-f-24" target="w4nXM_u8uc4eyidQvc-f-64">
          <mxGeometry width="50" height="50" relative="1" as="geometry">
            <mxPoint x="740" y="970" as="sourcePoint" />
            <mxPoint x="250" y="740" as="targetPoint" />
            <Array as="points">
              <mxPoint x="250" y="735" />
            </Array>
          </mxGeometry>
        </mxCell>
        <mxCell id="w4nXM_u8uc4eyidQvc-f-63" value="Files" style="rounded=0;whiteSpace=wrap;html=1;strokeWidth=0;fillColor=#3399FF;" vertex="1" parent="1">
          <mxGeometry x="310" y="630" width="105" height="50" as="geometry" />
        </mxCell>
        <mxCell id="w4nXM_u8uc4eyidQvc-f-64" value="Maybe, database" style="rounded=0;whiteSpace=wrap;html=1;strokeWidth=0;fillColor=#3399FF;" vertex="1" parent="1">
          <mxGeometry x="310" y="710" width="105" height="50" as="geometry" />
        </mxCell>
        <mxCell id="w4nXM_u8uc4eyidQvc-f-65" value="" style="endArrow=classic;html=1;rounded=0;exitX=0;exitY=0.5;exitDx=0;exitDy=0;exitPerimeter=0;entryX=0;entryY=0.5;entryDx=0;entryDy=0;" edge="1" parent="1" source="w4nXM_u8uc4eyidQvc-f-24" target="w4nXM_u8uc4eyidQvc-f-63">
          <mxGeometry width="50" height="50" relative="1" as="geometry">
            <mxPoint x="630" y="760" as="sourcePoint" />
            <mxPoint x="680" y="710" as="targetPoint" />
            <Array as="points">
              <mxPoint x="250" y="655" />
            </Array>
          </mxGeometry>
        </mxCell>
        <mxCell id="w4nXM_u8uc4eyidQvc-f-66" value="Project plan" style="rounded=0;whiteSpace=wrap;html=1;strokeColor=#000000;fillColor=#3399FF;strokeWidth=0;" vertex="1" parent="1">
          <mxGeometry x="70" y="370" width="105" height="50" as="geometry" />
        </mxCell>
        <mxCell id="w4nXM_u8uc4eyidQvc-f-67" value="Paper prototype" style="rounded=0;whiteSpace=wrap;html=1;strokeWidth=0;fillColor=#3399FF;" vertex="1" parent="1">
          <mxGeometry x="70" y="450" width="105" height="50" as="geometry" />
        </mxCell>
        <mxCell id="w4nXM_u8uc4eyidQvc-f-68" value="UML class diagram" style="rounded=0;whiteSpace=wrap;html=1;strokeWidth=0;fillColor=#3399FF;" vertex="1" parent="1">
          <mxGeometry x="70" y="534.5" width="105" height="50" as="geometry" />
        </mxCell>
        <mxCell id="w4nXM_u8uc4eyidQvc-f-69" value="" style="endArrow=classic;html=1;rounded=0;exitX=0;exitY=0.5;exitDx=0;exitDy=0;exitPerimeter=0;entryX=0;entryY=0.5;entryDx=0;entryDy=0;" edge="1" parent="1" source="w4nXM_u8uc4eyidQvc-f-13" target="w4nXM_u8uc4eyidQvc-f-67">
          <mxGeometry width="50" height="50" relative="1" as="geometry">
            <mxPoint x="580" y="520" as="sourcePoint" />
            <mxPoint x="630" y="470" as="targetPoint" />
            <Array as="points">
              <mxPoint x="30" y="475" />
            </Array>
          </mxGeometry>
        </mxCell>
        <mxCell id="w4nXM_u8uc4eyidQvc-f-70" value="" style="endArrow=classic;html=1;rounded=0;exitX=0;exitY=0.5;exitDx=0;exitDy=0;exitPerimeter=0;entryX=0;entryY=0.5;entryDx=0;entryDy=0;" edge="1" parent="1" source="w4nXM_u8uc4eyidQvc-f-13" target="w4nXM_u8uc4eyidQvc-f-66">
          <mxGeometry width="50" height="50" relative="1" as="geometry">
            <mxPoint x="580" y="520" as="sourcePoint" />
            <mxPoint x="630" y="470" as="targetPoint" />
            <Array as="points">
              <mxPoint x="30" y="395" />
            </Array>
          </mxGeometry>
        </mxCell>
        <mxCell id="w4nXM_u8uc4eyidQvc-f-71" value="Task" style="rounded=0;whiteSpace=wrap;html=1;strokeWidth=0;fillColor=#3399FF;" vertex="1" parent="1">
          <mxGeometry x="610" y="950" width="105" height="50" as="geometry" />
        </mxCell>
        <mxCell id="w4nXM_u8uc4eyidQvc-f-72" value="" style="endArrow=classic;html=1;rounded=0;exitX=0;exitY=0.5;exitDx=0;exitDy=0;exitPerimeter=0;entryX=0;entryY=0.5;entryDx=0;entryDy=0;" edge="1" parent="1" source="w4nXM_u8uc4eyidQvc-f-25" target="w4nXM_u8uc4eyidQvc-f-71">
          <mxGeometry width="50" height="50" relative="1" as="geometry">
            <mxPoint x="370" y="890" as="sourcePoint" />
            <mxPoint x="420" y="840" as="targetPoint" />
            <Array as="points">
              <mxPoint x="550" y="975" />
            </Array>
          </mxGeometry>
        </mxCell>
      </root>
    </mxGraphModel>
  </diagram>
</mxfile>
